<mxfile host="app.diagrams.net" agent="Mozilla/5.0 (Macintosh; Intel Mac OS X 10.15; rv:128.0) Gecko/20100101 Firefox/128.0" version="28.0.7">
  <diagram name="第 1 页" id="pM68nOWkcnircMMusBXs">
    <mxGraphModel dx="1351" dy="760" grid="1" gridSize="10" guides="1" tooltips="1" connect="1" arrows="1" fold="1" page="1" pageScale="1" pageWidth="1169" pageHeight="827" math="0" shadow="0">
      <root>
        <mxCell id="0" />
        <mxCell id="1" parent="0" />
        <mxCell id="AHDXEtwBrytR3mroLXBc-2" value="" style="ellipse;whiteSpace=wrap;html=1;fillColor=none;dashed=1;" vertex="1" parent="1">
          <mxGeometry x="140" y="100" width="220" height="140" as="geometry" />
        </mxCell>
        <mxCell id="AHDXEtwBrytR3mroLXBc-3" value="rank0" style="rounded=1;whiteSpace=wrap;html=1;" vertex="1" parent="1">
          <mxGeometry x="230" y="220" width="50" height="40" as="geometry" />
        </mxCell>
        <mxCell id="AHDXEtwBrytR3mroLXBc-4" value="rank1" style="rounded=1;whiteSpace=wrap;html=1;" vertex="1" parent="1">
          <mxGeometry x="330" y="160" width="50" height="40" as="geometry" />
        </mxCell>
        <mxCell id="AHDXEtwBrytR3mroLXBc-5" value="rank2" style="rounded=1;whiteSpace=wrap;html=1;" vertex="1" parent="1">
          <mxGeometry x="225" y="80" width="50" height="40" as="geometry" />
        </mxCell>
        <mxCell id="AHDXEtwBrytR3mroLXBc-6" value="rank3" style="rounded=1;whiteSpace=wrap;html=1;" vertex="1" parent="1">
          <mxGeometry x="110" y="150" width="50" height="40" as="geometry" />
        </mxCell>
        <mxCell id="AHDXEtwBrytR3mroLXBc-12" value="" style="endArrow=classic;html=1;rounded=0;" edge="1" parent="1">
          <mxGeometry width="50" height="50" relative="1" as="geometry">
            <mxPoint x="300" y="250" as="sourcePoint" />
            <mxPoint x="360" y="210" as="targetPoint" />
          </mxGeometry>
        </mxCell>
        <mxCell id="AHDXEtwBrytR3mroLXBc-17" value="k0,v0" style="edgeLabel;html=1;align=center;verticalAlign=middle;resizable=0;points=[];" vertex="1" connectable="0" parent="AHDXEtwBrytR3mroLXBc-12">
          <mxGeometry x="-0.0631" y="-2" relative="1" as="geometry">
            <mxPoint as="offset" />
          </mxGeometry>
        </mxCell>
        <mxCell id="AHDXEtwBrytR3mroLXBc-13" value="" style="endArrow=classic;html=1;rounded=0;" edge="1" parent="1">
          <mxGeometry width="50" height="50" relative="1" as="geometry">
            <mxPoint x="370" y="140" as="sourcePoint" />
            <mxPoint x="300" y="90" as="targetPoint" />
          </mxGeometry>
        </mxCell>
        <mxCell id="AHDXEtwBrytR3mroLXBc-19" value="k1,v1" style="edgeLabel;html=1;align=center;verticalAlign=middle;resizable=0;points=[];" vertex="1" connectable="0" parent="AHDXEtwBrytR3mroLXBc-13">
          <mxGeometry x="-0.1357" y="-1" relative="1" as="geometry">
            <mxPoint y="-1" as="offset" />
          </mxGeometry>
        </mxCell>
        <mxCell id="AHDXEtwBrytR3mroLXBc-14" value="" style="endArrow=classic;html=1;rounded=0;" edge="1" parent="1">
          <mxGeometry width="50" height="50" relative="1" as="geometry">
            <mxPoint x="210" y="80" as="sourcePoint" />
            <mxPoint x="130" y="140" as="targetPoint" />
          </mxGeometry>
        </mxCell>
        <mxCell id="AHDXEtwBrytR3mroLXBc-22" value="k2,v2" style="edgeLabel;html=1;align=center;verticalAlign=middle;resizable=0;points=[];" vertex="1" connectable="0" parent="AHDXEtwBrytR3mroLXBc-14">
          <mxGeometry x="-0.016" y="1" relative="1" as="geometry">
            <mxPoint y="-1" as="offset" />
          </mxGeometry>
        </mxCell>
        <mxCell id="AHDXEtwBrytR3mroLXBc-15" value="" style="endArrow=classic;html=1;rounded=0;" edge="1" parent="1">
          <mxGeometry width="50" height="50" relative="1" as="geometry">
            <mxPoint x="130" y="200" as="sourcePoint" />
            <mxPoint x="210" y="250" as="targetPoint" />
          </mxGeometry>
        </mxCell>
        <mxCell id="AHDXEtwBrytR3mroLXBc-23" value="k3,v3" style="edgeLabel;html=1;align=center;verticalAlign=middle;resizable=0;points=[];" vertex="1" connectable="0" parent="AHDXEtwBrytR3mroLXBc-15">
          <mxGeometry x="-0.1272" y="-2" relative="1" as="geometry">
            <mxPoint as="offset" />
          </mxGeometry>
        </mxCell>
        <mxCell id="AHDXEtwBrytR3mroLXBc-16" value="attn(q0, k0, v0)" style="text;html=1;align=center;verticalAlign=middle;resizable=0;points=[];autosize=1;strokeColor=none;fillColor=none;" vertex="1" parent="1">
          <mxGeometry x="200" y="260" width="100" height="30" as="geometry" />
        </mxCell>
        <mxCell id="AHDXEtwBrytR3mroLXBc-18" value="attn(q1, k1, v1)" style="text;html=1;align=center;verticalAlign=middle;resizable=0;points=[];autosize=1;strokeColor=none;fillColor=none;" vertex="1" parent="1">
          <mxGeometry x="380" y="165" width="100" height="30" as="geometry" />
        </mxCell>
        <mxCell id="AHDXEtwBrytR3mroLXBc-20" value="attn(q2, k2, v2)" style="text;html=1;align=center;verticalAlign=middle;resizable=0;points=[];autosize=1;strokeColor=none;fillColor=none;" vertex="1" parent="1">
          <mxGeometry x="205" y="40" width="100" height="30" as="geometry" />
        </mxCell>
        <mxCell id="AHDXEtwBrytR3mroLXBc-21" value="attn(q3, k3, v3)" style="text;html=1;align=center;verticalAlign=middle;resizable=0;points=[];autosize=1;strokeColor=none;fillColor=none;" vertex="1" parent="1">
          <mxGeometry x="10" y="165" width="100" height="30" as="geometry" />
        </mxCell>
        <mxCell id="AHDXEtwBrytR3mroLXBc-24" value="&lt;b&gt;step 0&lt;/b&gt;" style="text;html=1;align=center;verticalAlign=middle;resizable=0;points=[];autosize=1;strokeColor=none;fillColor=none;" vertex="1" parent="1">
          <mxGeometry x="220" y="288" width="60" height="30" as="geometry" />
        </mxCell>
        <mxCell id="AHDXEtwBrytR3mroLXBc-25" value="" style="ellipse;whiteSpace=wrap;html=1;fillColor=none;dashed=1;" vertex="1" parent="1">
          <mxGeometry x="620" y="101" width="220" height="140" as="geometry" />
        </mxCell>
        <mxCell id="AHDXEtwBrytR3mroLXBc-26" value="rank0" style="rounded=1;whiteSpace=wrap;html=1;" vertex="1" parent="1">
          <mxGeometry x="710" y="221" width="50" height="40" as="geometry" />
        </mxCell>
        <mxCell id="AHDXEtwBrytR3mroLXBc-27" value="rank1" style="rounded=1;whiteSpace=wrap;html=1;" vertex="1" parent="1">
          <mxGeometry x="810" y="161" width="50" height="40" as="geometry" />
        </mxCell>
        <mxCell id="AHDXEtwBrytR3mroLXBc-28" value="rank2" style="rounded=1;whiteSpace=wrap;html=1;" vertex="1" parent="1">
          <mxGeometry x="705" y="81" width="50" height="40" as="geometry" />
        </mxCell>
        <mxCell id="AHDXEtwBrytR3mroLXBc-29" value="rank3" style="rounded=1;whiteSpace=wrap;html=1;" vertex="1" parent="1">
          <mxGeometry x="590" y="151" width="50" height="40" as="geometry" />
        </mxCell>
        <mxCell id="AHDXEtwBrytR3mroLXBc-30" value="" style="endArrow=classic;html=1;rounded=0;" edge="1" parent="1">
          <mxGeometry width="50" height="50" relative="1" as="geometry">
            <mxPoint x="780" y="251" as="sourcePoint" />
            <mxPoint x="840" y="211" as="targetPoint" />
          </mxGeometry>
        </mxCell>
        <mxCell id="AHDXEtwBrytR3mroLXBc-31" value="k3,v3" style="edgeLabel;html=1;align=center;verticalAlign=middle;resizable=0;points=[];" vertex="1" connectable="0" parent="AHDXEtwBrytR3mroLXBc-30">
          <mxGeometry x="-0.0631" y="-2" relative="1" as="geometry">
            <mxPoint as="offset" />
          </mxGeometry>
        </mxCell>
        <mxCell id="AHDXEtwBrytR3mroLXBc-32" value="" style="endArrow=classic;html=1;rounded=0;" edge="1" parent="1">
          <mxGeometry width="50" height="50" relative="1" as="geometry">
            <mxPoint x="850" y="140" as="sourcePoint" />
            <mxPoint x="780" y="91" as="targetPoint" />
          </mxGeometry>
        </mxCell>
        <mxCell id="AHDXEtwBrytR3mroLXBc-43" value="k0,v0" style="edgeLabel;html=1;align=center;verticalAlign=middle;resizable=0;points=[];" vertex="1" connectable="0" parent="AHDXEtwBrytR3mroLXBc-32">
          <mxGeometry x="0.0672" y="-4" relative="1" as="geometry">
            <mxPoint as="offset" />
          </mxGeometry>
        </mxCell>
        <mxCell id="AHDXEtwBrytR3mroLXBc-34" value="" style="endArrow=classic;html=1;rounded=0;" edge="1" parent="1">
          <mxGeometry width="50" height="50" relative="1" as="geometry">
            <mxPoint x="690" y="81" as="sourcePoint" />
            <mxPoint x="610" y="141" as="targetPoint" />
          </mxGeometry>
        </mxCell>
        <mxCell id="AHDXEtwBrytR3mroLXBc-35" value="k1,v1" style="edgeLabel;html=1;align=center;verticalAlign=middle;resizable=0;points=[];" vertex="1" connectable="0" parent="AHDXEtwBrytR3mroLXBc-34">
          <mxGeometry x="-0.016" y="1" relative="1" as="geometry">
            <mxPoint y="-1" as="offset" />
          </mxGeometry>
        </mxCell>
        <mxCell id="AHDXEtwBrytR3mroLXBc-36" value="" style="endArrow=classic;html=1;rounded=0;" edge="1" parent="1">
          <mxGeometry width="50" height="50" relative="1" as="geometry">
            <mxPoint x="610" y="201" as="sourcePoint" />
            <mxPoint x="690" y="251" as="targetPoint" />
          </mxGeometry>
        </mxCell>
        <mxCell id="AHDXEtwBrytR3mroLXBc-37" value="k2,v2" style="edgeLabel;html=1;align=center;verticalAlign=middle;resizable=0;points=[];" vertex="1" connectable="0" parent="AHDXEtwBrytR3mroLXBc-36">
          <mxGeometry x="-0.1272" y="-2" relative="1" as="geometry">
            <mxPoint as="offset" />
          </mxGeometry>
        </mxCell>
        <mxCell id="AHDXEtwBrytR3mroLXBc-38" value="attn(q0, k3, v3)" style="text;html=1;align=center;verticalAlign=middle;resizable=0;points=[];autosize=1;strokeColor=none;fillColor=none;" vertex="1" parent="1">
          <mxGeometry x="680" y="261" width="100" height="30" as="geometry" />
        </mxCell>
        <mxCell id="AHDXEtwBrytR3mroLXBc-39" value="attn(q1, k0, v0)" style="text;html=1;align=center;verticalAlign=middle;resizable=0;points=[];autosize=1;strokeColor=none;fillColor=none;" vertex="1" parent="1">
          <mxGeometry x="860" y="166" width="100" height="30" as="geometry" />
        </mxCell>
        <mxCell id="AHDXEtwBrytR3mroLXBc-40" value="attn(q2, k1, v1)" style="text;html=1;align=center;verticalAlign=middle;resizable=0;points=[];autosize=1;strokeColor=none;fillColor=none;" vertex="1" parent="1">
          <mxGeometry x="685" y="41" width="100" height="30" as="geometry" />
        </mxCell>
        <mxCell id="AHDXEtwBrytR3mroLXBc-41" value="attn(q3, k2, v2)" style="text;html=1;align=center;verticalAlign=middle;resizable=0;points=[];autosize=1;strokeColor=none;fillColor=none;" vertex="1" parent="1">
          <mxGeometry x="490" y="166" width="100" height="30" as="geometry" />
        </mxCell>
        <mxCell id="AHDXEtwBrytR3mroLXBc-42" value="&lt;b&gt;step 1&lt;/b&gt;" style="text;html=1;align=center;verticalAlign=middle;resizable=0;points=[];autosize=1;strokeColor=none;fillColor=none;" vertex="1" parent="1">
          <mxGeometry x="700" y="289" width="60" height="30" as="geometry" />
        </mxCell>
        <mxCell id="AHDXEtwBrytR3mroLXBc-44" value="" style="ellipse;whiteSpace=wrap;html=1;fillColor=none;dashed=1;" vertex="1" parent="1">
          <mxGeometry x="140" y="450" width="220" height="140" as="geometry" />
        </mxCell>
        <mxCell id="AHDXEtwBrytR3mroLXBc-45" value="rank0" style="rounded=1;whiteSpace=wrap;html=1;" vertex="1" parent="1">
          <mxGeometry x="230" y="570" width="50" height="40" as="geometry" />
        </mxCell>
        <mxCell id="AHDXEtwBrytR3mroLXBc-46" value="rank1" style="rounded=1;whiteSpace=wrap;html=1;" vertex="1" parent="1">
          <mxGeometry x="330" y="510" width="50" height="40" as="geometry" />
        </mxCell>
        <mxCell id="AHDXEtwBrytR3mroLXBc-47" value="rank2" style="rounded=1;whiteSpace=wrap;html=1;" vertex="1" parent="1">
          <mxGeometry x="225" y="430" width="50" height="40" as="geometry" />
        </mxCell>
        <mxCell id="AHDXEtwBrytR3mroLXBc-48" value="rank3" style="rounded=1;whiteSpace=wrap;html=1;" vertex="1" parent="1">
          <mxGeometry x="110" y="500" width="50" height="40" as="geometry" />
        </mxCell>
        <mxCell id="AHDXEtwBrytR3mroLXBc-49" value="" style="endArrow=classic;html=1;rounded=0;" edge="1" parent="1">
          <mxGeometry width="50" height="50" relative="1" as="geometry">
            <mxPoint x="300" y="600" as="sourcePoint" />
            <mxPoint x="360" y="560" as="targetPoint" />
          </mxGeometry>
        </mxCell>
        <mxCell id="AHDXEtwBrytR3mroLXBc-50" value="k2,v2" style="edgeLabel;html=1;align=center;verticalAlign=middle;resizable=0;points=[];" vertex="1" connectable="0" parent="AHDXEtwBrytR3mroLXBc-49">
          <mxGeometry x="-0.0631" y="-2" relative="1" as="geometry">
            <mxPoint as="offset" />
          </mxGeometry>
        </mxCell>
        <mxCell id="AHDXEtwBrytR3mroLXBc-51" value="" style="endArrow=classic;html=1;rounded=0;" edge="1" parent="1">
          <mxGeometry width="50" height="50" relative="1" as="geometry">
            <mxPoint x="370" y="490" as="sourcePoint" />
            <mxPoint x="300" y="440" as="targetPoint" />
          </mxGeometry>
        </mxCell>
        <mxCell id="AHDXEtwBrytR3mroLXBc-53" value="k3,v3" style="edgeLabel;html=1;align=center;verticalAlign=middle;resizable=0;points=[];" vertex="1" connectable="0" parent="AHDXEtwBrytR3mroLXBc-51">
          <mxGeometry x="0.0672" y="-4" relative="1" as="geometry">
            <mxPoint as="offset" />
          </mxGeometry>
        </mxCell>
        <mxCell id="AHDXEtwBrytR3mroLXBc-54" value="" style="endArrow=classic;html=1;rounded=0;" edge="1" parent="1">
          <mxGeometry width="50" height="50" relative="1" as="geometry">
            <mxPoint x="210" y="430" as="sourcePoint" />
            <mxPoint x="130" y="490" as="targetPoint" />
          </mxGeometry>
        </mxCell>
        <mxCell id="AHDXEtwBrytR3mroLXBc-55" value="k0,v0" style="edgeLabel;html=1;align=center;verticalAlign=middle;resizable=0;points=[];" vertex="1" connectable="0" parent="AHDXEtwBrytR3mroLXBc-54">
          <mxGeometry x="-0.016" y="1" relative="1" as="geometry">
            <mxPoint y="-1" as="offset" />
          </mxGeometry>
        </mxCell>
        <mxCell id="AHDXEtwBrytR3mroLXBc-56" value="" style="endArrow=classic;html=1;rounded=0;" edge="1" parent="1">
          <mxGeometry width="50" height="50" relative="1" as="geometry">
            <mxPoint x="130" y="550" as="sourcePoint" />
            <mxPoint x="210" y="600" as="targetPoint" />
          </mxGeometry>
        </mxCell>
        <mxCell id="AHDXEtwBrytR3mroLXBc-57" value="k1,v1" style="edgeLabel;html=1;align=center;verticalAlign=middle;resizable=0;points=[];" vertex="1" connectable="0" parent="AHDXEtwBrytR3mroLXBc-56">
          <mxGeometry x="-0.1272" y="-2" relative="1" as="geometry">
            <mxPoint as="offset" />
          </mxGeometry>
        </mxCell>
        <mxCell id="AHDXEtwBrytR3mroLXBc-58" value="attn(q0, k2, v2)" style="text;html=1;align=center;verticalAlign=middle;resizable=0;points=[];autosize=1;strokeColor=none;fillColor=none;" vertex="1" parent="1">
          <mxGeometry x="200" y="610" width="100" height="30" as="geometry" />
        </mxCell>
        <mxCell id="AHDXEtwBrytR3mroLXBc-59" value="attn(q1, k3, v3)" style="text;html=1;align=center;verticalAlign=middle;resizable=0;points=[];autosize=1;strokeColor=none;fillColor=none;" vertex="1" parent="1">
          <mxGeometry x="380" y="515" width="100" height="30" as="geometry" />
        </mxCell>
        <mxCell id="AHDXEtwBrytR3mroLXBc-60" value="attn(q2, k0, v0)" style="text;html=1;align=center;verticalAlign=middle;resizable=0;points=[];autosize=1;strokeColor=none;fillColor=none;" vertex="1" parent="1">
          <mxGeometry x="205" y="390" width="100" height="30" as="geometry" />
        </mxCell>
        <mxCell id="AHDXEtwBrytR3mroLXBc-61" value="attn(q3, k1, v1)" style="text;html=1;align=center;verticalAlign=middle;resizable=0;points=[];autosize=1;strokeColor=none;fillColor=none;" vertex="1" parent="1">
          <mxGeometry x="10" y="515" width="100" height="30" as="geometry" />
        </mxCell>
        <mxCell id="AHDXEtwBrytR3mroLXBc-62" value="&lt;b&gt;step 2&lt;/b&gt;" style="text;html=1;align=center;verticalAlign=middle;resizable=0;points=[];autosize=1;strokeColor=none;fillColor=none;" vertex="1" parent="1">
          <mxGeometry x="220" y="638" width="60" height="30" as="geometry" />
        </mxCell>
        <mxCell id="AHDXEtwBrytR3mroLXBc-63" value="" style="ellipse;whiteSpace=wrap;html=1;fillColor=none;dashed=1;" vertex="1" parent="1">
          <mxGeometry x="630" y="441" width="220" height="140" as="geometry" />
        </mxCell>
        <mxCell id="AHDXEtwBrytR3mroLXBc-64" value="rank0" style="rounded=1;whiteSpace=wrap;html=1;" vertex="1" parent="1">
          <mxGeometry x="720" y="561" width="50" height="40" as="geometry" />
        </mxCell>
        <mxCell id="AHDXEtwBrytR3mroLXBc-65" value="rank1" style="rounded=1;whiteSpace=wrap;html=1;" vertex="1" parent="1">
          <mxGeometry x="820" y="501" width="50" height="40" as="geometry" />
        </mxCell>
        <mxCell id="AHDXEtwBrytR3mroLXBc-66" value="rank2" style="rounded=1;whiteSpace=wrap;html=1;" vertex="1" parent="1">
          <mxGeometry x="715" y="421" width="50" height="40" as="geometry" />
        </mxCell>
        <mxCell id="AHDXEtwBrytR3mroLXBc-67" value="rank3" style="rounded=1;whiteSpace=wrap;html=1;" vertex="1" parent="1">
          <mxGeometry x="600" y="491" width="50" height="40" as="geometry" />
        </mxCell>
        <mxCell id="AHDXEtwBrytR3mroLXBc-76" value="attn(q0, k1, v1)" style="text;html=1;align=center;verticalAlign=middle;resizable=0;points=[];autosize=1;strokeColor=none;fillColor=none;" vertex="1" parent="1">
          <mxGeometry x="690" y="601" width="100" height="30" as="geometry" />
        </mxCell>
        <mxCell id="AHDXEtwBrytR3mroLXBc-77" value="attn(q1, k2, v2)" style="text;html=1;align=center;verticalAlign=middle;resizable=0;points=[];autosize=1;strokeColor=none;fillColor=none;" vertex="1" parent="1">
          <mxGeometry x="870" y="506" width="100" height="30" as="geometry" />
        </mxCell>
        <mxCell id="AHDXEtwBrytR3mroLXBc-78" value="attn(q2, k3 v3)" style="text;html=1;align=center;verticalAlign=middle;resizable=0;points=[];autosize=1;strokeColor=none;fillColor=none;" vertex="1" parent="1">
          <mxGeometry x="695" y="381" width="100" height="30" as="geometry" />
        </mxCell>
        <mxCell id="AHDXEtwBrytR3mroLXBc-79" value="attn(q3, k4, v4)" style="text;html=1;align=center;verticalAlign=middle;resizable=0;points=[];autosize=1;strokeColor=none;fillColor=none;" vertex="1" parent="1">
          <mxGeometry x="500" y="506" width="100" height="30" as="geometry" />
        </mxCell>
        <mxCell id="AHDXEtwBrytR3mroLXBc-80" value="&lt;b&gt;step 3&lt;/b&gt;" style="text;html=1;align=center;verticalAlign=middle;resizable=0;points=[];autosize=1;strokeColor=none;fillColor=none;" vertex="1" parent="1">
          <mxGeometry x="710" y="629" width="60" height="30" as="geometry" />
        </mxCell>
      </root>
    </mxGraphModel>
  </diagram>
</mxfile>
